<?xml version="1.0" encoding="UTF-8" standalone="no"?>
<svg
   width="256"
   height="256"
   fill="none"
   viewBox="0 0 256 256"
   version="1.1"
   id="svg3"
   sodipodi:docname="Convex-Dark.svg"
   inkscape:version="1.4.3 (0d15f75042, 2025-12-25)"
   xmlns:inkscape="http://www.inkscape.org/namespaces/inkscape"
   xmlns:sodipodi="http://sodipodi.sourceforge.net/DTD/sodipodi-0.dtd"
   xmlns="http://www.w3.org/2000/svg"
   xmlns:svg="http://www.w3.org/2000/svg">
  <defs
     id="defs3" />
  <sodipodi:namedview
     id="namedview3"
     pagecolor="#505050"
     bordercolor="#ffffff"
     borderopacity="1"
     inkscape:showpageshadow="0"
     inkscape:pageopacity="0"
     inkscape:pagecheckerboard="1"
     inkscape:deskcolor="#505050"
     inkscape:zoom="1.5509393"
     inkscape:cx="195.0431"
     inkscape:cy="198.58933"
     inkscape:window-width="1781"
     inkscape:window-height="1383"
     inkscape:window-x="0"
     inkscape:window-y="0"
     inkscape:window-maximized="1"
     inkscape:current-layer="svg3" />
  <rect
     width="256"
     height="256"
     fill="#242938"
     rx="60"
     id="rect1" />
  <g
     id="g3"
     transform="matrix(1.7919969,0,0,1.7919969,-36.863795,-40.447969)">
    <path
       d="m 108.092,130.021 c 18.166,-2.018 35.293,-11.698 44.723,-27.854 -4.466,39.961 -48.162,65.218 -83.8292,49.711 -3.2866,-1.425 -6.1156,-3.796 -8.057,-6.844 -8.0154,-12.586 -10.6502,-28.601 -6.8644,-43.135 10.8166,18.668 32.8104,30.111 54.0276,28.122 z"
       fill="#f3b01c"
       id="path1" />
    <path
       d="M 53.4012,90.1735 C 46.0375,107.191 45.7186,127.114 54.7463,143.51 22.9759,119.608 23.3226,68.4578 54.358,44.7949 57.2286,42.6078 60.64,41.3097 64.2178,41.1121 78.9312,40.336 93.8804,46.0225 104.364,56.6193 83.0637,56.831 62.318,70.4756 53.4012,90.1735 Z"
       fill="#8d2676"
       id="path2" />
    <path
       d="M 114.637,61.8552 C 103.89,46.8701 87.0686,36.6684 68.6387,36.358 104.264,20.1876 148.085,46.4045 152.856,85.1654 c 0.444,3.5981 -0.139,7.2668 -1.734,10.5121 -6.656,13.5175 -18.998,24.0015 -33.42,27.8815 10.567,-19.599 9.263,-43.5439 -3.065,-61.7038 z"
       fill="#ee342f"
       id="path3" />
  </g>
</svg>
